<?xml version="1.0" encoding="UTF-8"?> <svg xmlns="http://www.w3.org/2000/svg" width="64.812" height="55.281" viewBox="0 0 64.812 55.281"><path d="M49.443-50.516q8.1,0,12.688,4.468t4.587,12.331a19.482,19.482,0,0,1-3.812,10.961A30.852,30.852,0,0,1,58.5-17.514L36.219,4.051a2.9,2.9,0,0,1-3.812,0L10.127-17.514A27.034,27.034,0,0,1,5.957-22.4Q1.906-28.236,1.906-33.717q0-7.863,4.587-12.331t12.688-4.468A16.933,16.933,0,0,1,28-47.656a34.672,34.672,0,0,1,6.314,4.885,34.672,34.672,0,0,1,6.314-4.885A16.933,16.933,0,0,1,49.443-50.516Z" transform="translate(-1.906 50.516)" fill="#fff"></path></svg> 